<svg width="24" height="24" viewBox="0 0 24 24" fill="none" xmlns="http://www.w3.org/2000/svg">
<g clip-path="url(#clip0_3516_42)">
<path d="M4.66964 0.377687C4.12289 0.0243903 3.46617 -0.0823909 2.85019 0.0630153L13.6751 10.888L17.1835 7.37959L4.66964 0.377687Z" fill="white"/>
<path d="M1.50666 0.942871C1.20474 1.34426 1.03098 1.83711 1.03098 2.35845V21.6409C1.03098 22.1622 1.20479 22.655 1.50666 23.0564L12.5634 11.9997L1.50666 0.942871Z" fill="white"/>
<path d="M21.7622 9.94148L18.6091 8.17725L14.7867 11.9996L18.6093 15.8222L21.7627 14.0578C22.5182 13.6345 22.9692 12.8652 22.9692 11.9996C22.9692 11.134 22.5182 10.3648 21.7622 9.94148Z" fill="white"/>
<path d="M13.675 13.1116L2.85074 23.9359C3.02821 23.9776 3.20882 24.0001 3.38943 24.0001C3.83577 24.0001 4.28057 23.8732 4.66958 23.6218L17.1836 16.62L13.675 13.1116Z" fill="white"/>
</g>
<defs>
<clipPath id="clip0_3516_42">
<rect width="24" height="24" fill="white"/>
</clipPath>
</defs>
</svg>
