<svg width="24" height="24" viewBox="0 0 24 24" fill="none" xmlns="http://www.w3.org/2000/svg">
<g clip-path="url(#clip0_3516_33)">
<path d="M16.4989 0C15.2194 0.0884995 13.7239 0.907495 12.8525 1.97399C12.0575 2.94148 11.4035 4.37847 11.6585 5.77497C13.0565 5.81847 14.5009 4.97997 15.3379 3.89548C16.1209 2.88598 16.7134 1.45799 16.4989 0Z" fill="white"/>
<path d="M21.5554 8.05192C20.3269 6.51143 18.6004 5.61743 16.9699 5.61743C14.8174 5.61743 13.9069 6.64793 12.4114 6.64793C10.8694 6.64793 9.69792 5.62043 7.83643 5.62043C6.00794 5.62043 4.06095 6.73792 2.82646 8.64891C1.09097 11.3399 1.38797 16.3994 4.20045 20.7088C5.20695 22.2508 6.55094 23.9848 8.30893 23.9998C9.87342 24.0148 10.3144 22.9963 12.4339 22.9858C14.5534 22.9738 14.9554 24.0133 16.5169 23.9968C18.2764 23.9833 19.6939 22.0618 20.7004 20.5198C21.4219 19.4144 21.6904 18.8579 22.2498 17.6099C18.1804 16.0604 17.5279 10.2734 21.5554 8.05192Z" fill="white"/>
</g>
<defs>
<clipPath id="clip0_3516_33">
<rect width="24" height="24" fill="white"/>
</clipPath>
</defs>
</svg>
